<?xml version="1.0" encoding="UTF-8"?>
<svg id="_Слой_1" data-name="Слой 1" xmlns="http://www.w3.org/2000/svg" viewBox="0 0 1000 1000">
  <defs>
    <style>
      .cls-1 {
        stroke-width: 0px;
      }
    </style>
  </defs>
  <path class="cls-1" d="m568.28,499.91c0-259.08,193.1-469.19,431.59-470.02V-.05H-.05v29.93c.48,0,.95-.02,1.42-.02,239.14,0,433.01,210.45,433.01,470.04S240.52,969.95,1.38,969.95c-.48,0-.95-.02-1.42-.02v29.93h999.91v-29.93c-238.49-.84-431.59-210.94-431.59-470.02Z"/>
  <path class="cls-1" d="m1000,101.73c-200.98,1.95-363.35,179.39-363.35,398.01s162.37,396.06,363.35,398.01V101.73Z"/>
  <path class="cls-1" d="m1.03,101.62c-.32,0-.63.01-.94.01v796c.32,0,.63.01.94.01,200.15,0,362.41-178.2,362.41-398.01S201.19,101.62,1.03,101.62Z"/>
</svg>